<?xml version="1.0" encoding="UTF-8" standalone="no"?>
<!-- Created with Inkscape (http://www.inkscape.org/) -->

<svg
   xmlns:dc="http://purl.org/dc/elements/1.1/"
   xmlns:cc="http://creativecommons.org/ns#"
   xmlns:rdf="http://www.w3.org/1999/02/22-rdf-syntax-ns#"
   xmlns:svg="http://www.w3.org/2000/svg"
   xmlns="http://www.w3.org/2000/svg"
   xmlns:sodipodi="http://sodipodi.sourceforge.net/DTD/sodipodi-0.dtd"
   xmlns:inkscape="http://www.inkscape.org/namespaces/inkscape"
   version="1.1"
   id="svg121089"
   xml:space="preserve"
   width="800"
   height="800"
   viewBox="0 0 800 800"
   sodipodi:docname="tribal-shape-vector-4-publicdomainvectors.org.svg"
   inkscape:version="0.92.4 (5da689c313, 2019-01-14)"><metadata
     id="metadata121095"><rdf:RDF><cc:Work
         rdf:about=""><dc:format>image/svg+xml</dc:format><dc:type
           rdf:resource="http://purl.org/dc/dcmitype/StillImage" /><dc:title></dc:title></cc:Work></rdf:RDF></metadata><defs
     id="defs121093"><clipPath
       clipPathUnits="userSpaceOnUse"
       id="clipPath121105"><path
         d="M 0,600 H 600 V 0 H 0 Z"
         id="path121103"
         inkscape:connector-curvature="0" /></clipPath></defs><sodipodi:namedview
     pagecolor="#ffffff"
     bordercolor="#666666"
     borderopacity="1"
     objecttolerance="10"
     gridtolerance="10"
     guidetolerance="10"
     inkscape:pageopacity="0"
     inkscape:pageshadow="2"
     inkscape:window-width="797"
     inkscape:window-height="480"
     id="namedview121091"
     showgrid="false"
     inkscape:zoom="0.295"
     inkscape:cx="400"
     inkscape:cy="400"
     inkscape:window-x="0"
     inkscape:window-y="0"
     inkscape:window-maximized="0"
     inkscape:current-layer="g121097" /><g
     id="g121097"
     inkscape:groupmode="layer"
     inkscape:label="tribal-shape-vector-4-publicdomainvectors.org"
     transform="matrix(1.3333333,0,0,-1.3333333,0,800)"><g
       id="g121099"><g
         id="g121101"
         clip-path="url(#clipPath121105)"><path
           d="m 434.869,410.755 c -13.181,2.607 -26.53,4.281 -39.945,5.012 -2.684,0.318 -5.379,0.428 -8.076,0.328 -4.373,0.238 -8.754,0.21 -13.126,-0.09 -2.715,-0.13 -5.424,-0.359 -8.122,-0.685 -1.554,-0.178 -3.106,-0.39 -4.655,-0.632 -0.582,1.452 -1.198,2.893 -1.842,4.318 -1.104,2.484 -2.296,4.927 -3.578,7.326 -1.983,3.905 -4.209,7.681 -6.655,11.313 -1.295,2.365 -2.775,4.625 -4.422,6.763 -7.51,11.142 -15.793,21.744 -24.791,31.723 -3.24,3.195 -6.525,6.339 -9.858,9.438 -2.179,2.388 -4.541,4.597 -7.062,6.606 -2.491,-2.047 -4.819,-4.29 -6.962,-6.711 -3.287,-3.148 -6.524,-6.341 -9.714,-9.585 -8.85,-10.11 -16.974,-20.836 -24.315,-32.089 -1.616,-2.162 -3.061,-4.443 -4.323,-6.828 -2.392,-3.668 -4.558,-7.478 -6.484,-11.412 -1.245,-2.417 -2.401,-4.877 -3.468,-7.377 -0.623,-1.436 -1.216,-2.886 -1.777,-4.346 l 0.5,-0.853 c 0.994,1.905 2.082,3.762 3.258,5.565 1.945,3.086 3.92,6.149 5.928,9.194 3.201,4.268 6.476,8.485 9.821,12.643 3.429,4.493 7.143,8.763 11.117,12.781 7.526,7.51 15.389,14.676 23.564,21.471 0.993,0.69 1.984,1.389 2.971,2.09 0.998,-0.686 2,-1.368 3.003,-2.046 8.274,-6.672 16.243,-13.719 23.881,-21.115 4.034,-3.959 7.811,-8.174 11.308,-12.615 3.406,-4.108 6.743,-8.275 10.01,-12.494 2.049,-3.016 4.072,-6.049 6.061,-9.105 1.204,-1.785 2.32,-3.624 3.345,-5.514 l -0.001,-0.001 c 2.146,0.09 4.298,0.077 6.447,-0.039 3.643,-0.143 7.284,-0.322 10.925,-0.537 5.299,-0.64 10.586,-1.368 15.86,-2.185 5.606,-0.724 11.162,-1.804 16.629,-3.236 10.267,-2.764 20.402,-5.99 30.376,-9.671 1.095,-0.515 2.193,-1.025 3.294,-1.53 -0.095,-1.207 -0.184,-2.415 -0.269,-3.623 -1.641,-10.503 -3.758,-20.925 -6.347,-31.238 -1.408,-5.473 -3.174,-10.852 -5.271,-16.1 -1.853,-5.005 -3.793,-9.978 -5.815,-14.916 -1.587,-3.284 -3.204,-6.551 -4.851,-9.804 -0.946,-1.934 -1.981,-3.82 -3.108,-5.651 l 0.985,0.008 c 0.97,1.232 1.909,2.483 2.823,3.756 1.6,2.197 3.118,4.452 4.553,6.76 2.391,3.672 4.548,7.485 6.471,11.419 1.402,2.307 2.619,4.716 3.648,7.213 5.893,12.074 10.934,24.548 15.076,37.33 1.144,4.404 2.226,8.821 3.244,13.257 0.978,3.081 1.712,6.231 2.192,9.419 -3.018,1.133 -6.127,2.027 -9.294,2.674 -4.372,1.271 -8.753,2.479 -13.159,3.621 m 75.472,32.595 c -2.112,0.975 -4.314,1.731 -6.575,2.257 -0.154,0.025 -0.307,0.015 -0.455,-0.026 -0.094,-0.035 -0.163,-0.122 -0.176,-0.223 -0.028,-0.257 0.004,-0.518 0.091,-0.762 0.822,-3.42 1.665,-6.833 2.53,-10.241 0.147,-0.4 0.279,-0.804 0.397,-1.213 0.301,-0.303 0.59,-0.615 0.869,-0.939 2.552,-2.416 5.124,-4.815 7.709,-7.198 0.172,-0.194 0.386,-0.347 0.623,-0.45 0.094,-0.037 0.204,-0.02 0.281,0.047 0.107,0.108 0.191,0.237 0.243,0.383 0.642,2.231 1.056,4.524 1.232,6.842 0.489,2.714 0.756,5.463 0.788,8.213 -2.419,1.31 -4.947,2.418 -7.557,3.31 m -51.642,-14.569 c -2.286,0.18 -4.578,0.225 -6.869,0.14 -2.817,0.103 -5.638,-0.116 -8.404,-0.658 l -0.438,-0.1 c -0.092,-0.038 -0.141,-0.139 -0.115,-0.235 0.046,-0.108 0.136,-0.19 0.255,-0.216 0.285,-0.072 0.581,-0.108 0.877,-0.108 2.529,-0.274 5.041,-0.712 7.512,-1.31 2.267,-0.871 4.515,-1.784 6.745,-2.737 4.148,-2.265 8.052,-4.951 11.645,-8.021 0.705,-0.806 1.355,-1.655 1.948,-2.538 0.486,-0.951 0.908,-1.934 1.271,-2.941 0.93,-4.632 1.375,-9.35 1.333,-14.077 -0.254,-2.411 -0.551,-4.82 -0.896,-7.223 -0.678,-2.451 -1.521,-4.856 -2.51,-7.2 -0.148,-0.258 -0.26,-0.533 -0.336,-0.818 -0.033,-0.116 -0.007,-0.237 0.066,-0.329 0.072,-0.068 0.184,-0.073 0.261,-0.012 l 0.3,0.332 c 1.818,2.153 3.385,4.509 4.669,7.021 1.188,1.958 2.265,3.984 3.222,6.069 4.068,7.705 7.284,15.837 9.587,24.241 0.556,1.945 1.094,3.895 1.615,5.849 -1.96,0.496 -3.926,0.977 -5.893,1.44 -8.465,2.08 -17.135,3.231 -25.845,3.431 m -31.631,-55.618 c 1.065,5.015 1.981,10.064 2.742,15.137 -4.801,1.807 -9.659,3.466 -14.558,4.978 -11.24,3.279 -22.784,5.41 -34.454,6.357 -6.192,0.674 -12.417,1.012 -18.647,1.023 -3.087,0.023 -6.175,-0.032 -9.256,-0.159 l -4.555,-8.028 c 6.007,-0.32 11.998,-0.924 17.952,-1.818 4.709,-0.77 9.397,-1.645 14.065,-2.623 10.111,-2.22 19.997,-5.342 29.549,-9.329 0.681,-0.298 1.363,-0.594 2.042,-0.891 -0.07,-0.739 -0.144,-1.479 -0.216,-2.218 -1.17,-10.283 -3.257,-20.44 -6.243,-30.35 -1.42,-4.555 -2.937,-9.076 -4.557,-13.563 -2.121,-5.635 -4.51,-11.163 -7.159,-16.564 2.73,-5.362 5.199,-10.854 7.405,-16.458 1.685,-4.462 3.272,-8.959 4.76,-13.492 3.131,-9.864 5.373,-19.989 6.695,-30.254 0.083,-0.737 0.167,-1.476 0.249,-2.213 -0.674,-0.308 -1.354,-0.615 -2.028,-0.923 -9.49,-4.127 -19.331,-7.398 -29.406,-9.769 -4.653,-1.047 -9.33,-1.991 -14.023,-2.834 -5.941,-0.981 -11.922,-1.675 -17.924,-2.085 -3.28,-5.042 -6.801,-9.928 -10.551,-14.639 -3.022,-3.69 -6.124,-7.314 -9.304,-10.868 -6.977,-7.645 -14.625,-14.645 -22.854,-20.926 -0.598,-0.441 -1.194,-0.882 -1.793,-1.324 -0.603,0.433 -1.208,0.865 -1.811,1.3 -8.321,6.153 -16.074,13.04 -23.163,20.579 -3.234,3.507 -6.392,7.084 -9.467,10.729 -3.82,4.655 -7.413,9.486 -10.768,14.479 l -4.556,-8.027 c 1.471,-2.713 3.008,-5.389 4.612,-8.029 3.204,-5.34 6.688,-10.508 10.442,-15.481 6.797,-9.533 14.546,-18.351 23.128,-26.319 3.811,-3.43 7.725,-6.746 11.737,-9.941 3.966,3.254 7.83,6.63 11.589,10.117 8.462,8.096 16.079,17.026 22.734,26.659 3.678,5.027 7.086,10.247 10.21,15.638 1.562,2.659 3.058,5.362 4.491,8.095 3.084,-0.082 6.17,-0.091 9.256,-0.022 6.227,0.105 12.448,0.538 18.629,1.303 11.654,1.119 23.165,3.423 34.356,6.87 4.875,1.583 9.705,3.319 14.48,5.194 -0.836,5.063 -1.827,10.096 -2.967,15.095 -2.782,11.378 -6.708,22.439 -11.722,33.018 -2.514,5.698 -5.331,11.258 -8.438,16.66 -1.524,2.684 -3.115,5.33 -4.766,7.936 1.613,2.63 3.163,5.3 4.644,8.006 3.028,5.448 5.762,11.049 8.189,16.786 4.858,10.654 8.619,21.772 11.23,33.188 m 114.233,76.036 c -0.822,1.046 -1.652,2.089 -2.481,3.13 -0.505,1.231 -1.011,2.461 -1.524,3.691 -0.055,0.144 -0.155,0.268 -0.282,0.352 -0.11,0.05 -0.237,0.044 -0.338,-0.018 -0.248,-0.15 -0.465,-0.338 -0.649,-0.557 -1.829,-2.608 -3.523,-5.308 -5.07,-8.087 3.183,-0.002 6.364,0.163 9.531,0.489 0.283,0.054 0.554,0.154 0.803,0.295 0.103,0.059 0.173,0.166 0.181,0.285 -0.013,0.154 -0.073,0.301 -0.171,0.42 M 306.442,586.073 c 0.094,0.268 0.143,0.553 0.145,0.841 0,0.118 -0.057,0.231 -0.156,0.298 -0.138,0.066 -0.298,0.089 -0.447,0.062 -1.318,-0.189 -2.636,-0.383 -3.954,-0.585 -1.318,0.182 -2.637,0.356 -3.958,0.525 -0.152,0.026 -0.309,0.002 -0.447,-0.067 -0.097,-0.068 -0.154,-0.182 -0.153,-0.302 0.008,-0.287 0.06,-0.57 0.159,-0.839 1.345,-2.888 2.836,-5.704 4.469,-8.437 1.591,2.757 3.043,5.595 4.342,8.504 m -19.25,-190.581 c 2.34,5.605 4.852,11.136 7.531,16.584 1.461,2.971 3.061,5.869 4.794,8.691 1.182,2.144 2.418,4.261 3.707,6.344 1.319,-2.064 2.587,-4.162 3.8,-6.288 1.776,-2.794 3.419,-5.669 4.923,-8.619 2.76,-5.408 5.356,-10.9 7.778,-16.47 4.841,-11.337 8.336,-23.2 10.413,-35.341 11.487,4.445 23.461,7.53 35.679,9.187 6.023,0.776 12.072,1.366 18.129,1.772 3.304,0.219 6.613,0.282 9.921,0.192 2.449,0.049 4.902,0.038 7.349,-0.038 -1.127,-2.175 -2.31,-4.319 -3.544,-6.435 -1.533,-2.935 -3.2,-5.795 -5.003,-8.574 -3.304,-5.094 -6.763,-10.087 -10.376,-14.969 -7.395,-9.863 -15.922,-18.82 -25.4,-26.689 l 29.313,0.219 c 1.048,0.993 2.073,2.013 3.076,3.056 1.641,3.176 3.11,6.436 4.397,9.771 1.72,3.652 3.034,7.487 3.914,11.431 1.699,5.589 2.986,11.291 3.856,17.066 1.141,5.01 1.858,10.109 2.148,15.238 0.098,0.461 0.164,0.928 0.193,1.398 -0.425,0.204 -0.863,0.374 -1.314,0.511 -4.623,2.246 -9.425,4.102 -14.357,5.547 -5.467,2.051 -11.074,3.704 -16.784,4.942 -3.87,1.153 -7.86,1.873 -11.888,2.149 -3.541,0.5 -7.102,0.805 -10.674,0.918 -1.4,-0.366 -2.789,-0.766 -4.17,-1.198 -0.336,1.406 -0.705,2.803 -1.107,4.193 -1.929,3.008 -4.019,5.909 -6.264,8.693 -2.304,3.316 -4.965,6.372 -7.942,9.105 -3.99,4.265 -8.286,8.231 -12.852,11.872 -3.769,3.492 -7.825,6.663 -12.124,9.479 -0.348,0.316 -0.72,0.607 -1.114,0.868 -0.387,-0.266 -0.754,-0.562 -1.099,-0.885 -4.256,-2.88 -8.264,-6.111 -11.981,-9.658 -4.511,-3.71 -8.746,-7.739 -12.672,-12.063 -2.935,-2.779 -5.553,-5.872 -7.806,-9.222 -2.202,-2.818 -4.249,-5.749 -6.133,-8.787 -0.383,-1.394 -0.73,-2.797 -1.046,-4.209 l 14.847,-25.274 c 1.892,12.17 5.209,24.084 9.882,35.493 m 3.739,156.505 c 3.373,-0.997 6.75,-1.973 10.132,-2.927 0.421,-0.073 0.84,-0.161 1.251,-0.261 0.412,0.107 0.828,0.201 1.248,0.28 3.368,1.003 6.731,2.03 10.089,3.077 0.253,0.052 0.491,0.159 0.7,0.316 0.08,0.062 0.119,0.165 0.098,0.265 -0.037,0.148 -0.11,0.284 -0.208,0.404 -1.613,1.671 -3.391,3.176 -5.31,4.486 -2.106,1.783 -4.353,3.385 -6.718,4.79 -2.344,-1.44 -4.567,-3.075 -6.647,-4.89 -1.899,-1.339 -3.654,-2.87 -5.242,-4.565 -0.096,-0.12 -0.165,-0.259 -0.202,-0.407 -0.018,-0.099 0.022,-0.202 0.104,-0.264 0.209,-0.153 0.449,-0.257 0.705,-0.304 m -15.427,-60.488 c 0.205,0.212 0.384,0.45 0.531,0.707 1.504,2.054 3.137,4.009 4.892,5.851 1.886,1.527 3.802,3.017 5.741,4.473 4.037,2.46 8.315,4.496 12.768,6.074 1.051,0.206 2.112,0.345 3.175,0.418 1.065,-0.057 2.127,-0.18 3.181,-0.37 4.478,-1.511 8.785,-3.484 12.858,-5.884 1.962,-1.425 3.896,-2.887 5.809,-4.385 1.78,-1.818 3.443,-3.746 4.978,-5.779 0.15,-0.255 0.333,-0.489 0.542,-0.698 0.082,-0.086 0.201,-0.124 0.317,-0.107 0.095,0.028 0.154,0.121 0.14,0.221 l -0.137,0.425 c -0.955,2.652 -2.211,5.187 -3.746,7.553 -1.101,2.01 -2.317,3.955 -3.645,5.824 -4.638,7.377 -10.074,14.229 -16.198,20.426 -1.408,1.452 -2.828,2.894 -4.26,4.322 -1.41,-1.45 -2.808,-2.912 -4.194,-4.384 -6.031,-6.29 -11.363,-13.22 -15.892,-20.666 -1.3,-1.89 -2.485,-3.853 -3.556,-5.878 -1.499,-2.391 -2.718,-4.943 -3.633,-7.609 l -0.131,-0.427 c -0.013,-0.099 0.048,-0.193 0.145,-0.22 0.115,-0.014 0.233,0.026 0.315,0.113 M 225.44,340.356 c -3.686,4.829 -7.219,9.769 -10.598,14.812 -1.842,2.753 -3.553,5.587 -5.129,8.499 -1.266,2.095 -2.482,4.224 -3.641,6.382 2.448,0.112 4.897,0.16 7.346,0.148 3.308,0.139 6.619,0.125 9.926,-0.046 6.063,-0.313 12.117,-0.814 18.152,-1.5 12.24,-1.474 24.26,-4.38 35.814,-8.653 l -14.847,25.275 c -1.385,0.413 -2.781,0.791 -4.184,1.137 -3.571,-0.166 -7.129,-0.527 -10.661,-1.077 -4.024,-0.338 -8.001,-1.116 -11.857,-2.327 -5.688,-1.323 -11.271,-3.059 -16.708,-5.193 -4.907,-1.519 -9.681,-3.446 -14.269,-5.761 -0.45,-0.143 -0.887,-0.321 -1.308,-0.529 0.036,-0.47 0.108,-0.936 0.215,-1.395 0.367,-5.127 1.161,-10.214 2.375,-15.205 0.956,-5.761 2.328,-11.444 4.11,-17.006 0.937,-3.931 2.309,-7.746 4.084,-11.373 1.339,-3.314 2.855,-6.553 4.543,-9.704 1.016,-1.027 2.058,-2.03 3.121,-3.01 l 29.311,0.22 c -9.592,7.726 -18.252,16.554 -25.795,26.306 m -38.83,-21.161 c -1.699,3.227 -3.364,6.471 -4.999,9.731 -2.095,4.907 -4.109,9.85 -6.038,14.827 -2.176,5.217 -4.018,10.568 -5.511,16.019 -2.741,10.273 -5.014,20.663 -6.812,31.14 -0.102,1.208 -0.21,2.413 -0.324,3.62 1.093,0.52 2.185,1.047 3.273,1.577 9.916,3.83 20.002,7.208 30.227,10.124 5.445,1.514 10.984,2.678 16.577,3.485 5.263,0.896 10.538,1.702 15.826,2.421 3.638,0.269 7.275,0.503 10.917,0.7 2.148,0.149 4.298,0.194 6.447,0.135 l -0.499,0.853 c -1.551,0.22 -3.106,0.407 -4.665,0.563 -2.702,0.286 -5.413,0.475 -8.131,0.564 -4.375,0.234 -8.755,0.196 -13.126,-0.108 -2.697,0.061 -5.392,-0.089 -8.068,-0.448 -13.404,-0.931 -26.726,-2.803 -39.868,-5.606 -4.386,-1.209 -8.753,-2.483 -13.102,-3.819 -3.158,-0.694 -6.252,-1.635 -9.253,-2.812 0.529,-3.181 1.308,-6.319 2.332,-9.386 1.083,-4.42 2.229,-8.82 3.442,-13.206 4.332,-12.719 9.558,-25.117 15.634,-37.101 1.065,-2.481 2.318,-4.872 3.752,-7.156 1.98,-3.906 4.196,-7.687 6.641,-11.323 1.471,-2.287 3.023,-4.517 4.654,-6.692 0.932,-1.257 1.893,-2.496 2.877,-3.714 l 0.987,0.009 c -1.153,1.814 -2.217,3.684 -3.19,5.603 M 91.154,421.387 c 0.237,0.105 0.449,0.26 0.617,0.459 2.549,2.422 5.085,4.859 7.602,7.312 0.273,0.327 0.557,0.645 0.852,0.953 0.112,0.41 0.238,0.817 0.379,1.219 0.816,3.42 1.608,6.846 2.379,10.276 0.083,0.246 0.109,0.508 0.079,0.765 -0.015,0.099 -0.084,0.185 -0.181,0.218 -0.147,0.039 -0.301,0.048 -0.453,0.02 -2.254,-0.559 -4.447,-1.347 -6.54,-2.355 -2.598,-0.931 -5.109,-2.076 -7.509,-3.422 0.075,-2.75 0.38,-5.493 0.913,-8.201 0.209,-2.316 0.658,-4.6 1.332,-6.823 0.056,-0.142 0.141,-0.272 0.251,-0.378 0.077,-0.067 0.187,-0.082 0.279,-0.043 m -25.486,23.266 c 3.173,-0.279 6.358,-0.396 9.541,-0.348 -1.591,2.757 -3.325,5.431 -5.192,8.011 -0.186,0.217 -0.409,0.401 -0.656,0.548 -0.103,0.059 -0.23,0.064 -0.338,0.012 -0.127,-0.086 -0.224,-0.211 -0.277,-0.357 -0.496,-1.235 -0.984,-2.473 -1.47,-3.712 -0.815,-1.052 -1.626,-2.108 -2.433,-3.166 -0.098,-0.12 -0.156,-0.269 -0.165,-0.422 0.01,-0.119 0.081,-0.225 0.185,-0.283 0.252,-0.139 0.524,-0.233 0.805,-0.283 m 65.373,-59.478 c 1.321,-2.493 2.923,-4.825 4.774,-6.95 l 0.304,-0.328 c 0.081,-0.06 0.19,-0.053 0.262,0.016 0.07,0.092 0.095,0.213 0.06,0.329 -0.08,0.284 -0.196,0.557 -0.346,0.813 -1.028,2.33 -1.902,4.721 -2.621,7.163 -0.379,2.397 -0.712,4.8 -1.002,7.209 -0.114,4.724 0.261,9.448 1.123,14.094 0.346,1.013 0.757,2 1.225,2.958 0.581,0.894 1.22,1.752 1.912,2.569 3.546,3.122 7.409,5.868 11.523,8.194 2.216,0.986 4.45,1.933 6.703,2.837 2.464,0.636 4.966,1.11 7.492,1.423 0.297,0.002 0.59,0.044 0.877,0.12 0.116,0.028 0.207,0.111 0.251,0.219 0.023,0.099 -0.028,0.197 -0.12,0.234 l -0.438,0.093 c -2.774,0.5 -5.598,0.679 -8.414,0.534 -2.291,0.05 -4.583,-0.029 -6.867,-0.245 -8.707,-0.329 -17.357,-1.609 -25.788,-3.816 -1.961,-0.492 -3.92,-1.001 -5.872,-1.527 0.55,-1.946 1.117,-3.888 1.7,-5.825 2.431,-8.368 5.767,-16.451 9.951,-24.095 0.987,-2.071 2.094,-4.079 3.311,-6.019 m 96.731,-144.316 c -10.109,2.22 -19.997,5.342 -29.548,9.329 -0.681,0.297 -1.362,0.593 -2.043,0.89 0.073,0.74 0.145,1.48 0.216,2.219 1.17,10.282 3.258,20.439 6.243,30.349 1.42,4.555 2.939,9.077 4.558,13.563 2.121,5.636 4.51,11.164 7.157,16.565 -2.728,5.362 -5.198,10.854 -7.404,16.456 -1.684,4.463 -3.272,8.961 -4.76,13.493 -3.132,9.865 -5.371,19.99 -6.695,30.254 -0.083,0.738 -0.166,1.477 -0.249,2.214 0.675,0.308 1.353,0.615 2.028,0.922 9.492,4.128 19.331,7.399 29.406,9.769 4.654,1.048 9.33,1.993 14.025,2.833 5.941,0.981 11.921,1.678 17.923,2.086 3.28,5.043 6.801,9.928 10.551,14.639 3.021,3.69 6.124,7.314 9.304,10.869 6.978,7.645 14.626,14.648 22.854,20.925 0.598,0.44 1.195,0.881 1.792,1.324 0.605,-0.433 1.208,-0.866 1.812,-1.297 8.321,-6.155 16.074,-13.041 23.164,-20.583 3.234,-3.505 6.39,-7.082 9.467,-10.727 3.819,-4.656 7.412,-9.488 10.767,-14.48 l 4.555,8.028 c -1.472,2.712 -3.007,5.389 -4.611,8.027 -3.204,5.344 -6.686,10.513 -10.442,15.483 -6.796,9.533 -14.546,18.348 -23.127,26.318 -3.812,3.43 -7.727,6.747 -11.737,9.943 -3.968,-3.255 -7.833,-6.631 -11.592,-10.118 -8.46,-8.096 -16.077,-17.027 -22.731,-26.661 -3.679,-5.025 -7.086,-10.245 -10.21,-15.636 -1.563,-2.662 -3.061,-5.361 -4.491,-8.095 v 0 c -3.084,0.082 -6.17,0.09 -9.256,0.021 -6.23,-0.105 -12.448,-0.536 -18.63,-1.302 -11.653,-1.121 -23.164,-3.423 -34.356,-6.871 -4.875,-1.584 -9.707,-3.316 -14.48,-5.194 0.837,-5.061 1.827,-10.096 2.967,-15.095 2.781,-11.376 6.707,-22.438 11.722,-33.017 2.515,-5.699 5.332,-11.26 8.438,-16.66 1.523,-2.685 3.113,-5.33 4.765,-7.936 -1.613,-2.63 -3.163,-5.3 -4.645,-8.007 -3.027,-5.447 -5.76,-11.049 -8.189,-16.785 -4.856,-10.653 -8.616,-21.772 -11.227,-33.188 -1.066,-5.015 -1.981,-10.063 -2.742,-15.138 4.801,-1.806 9.657,-3.465 14.557,-4.978 11.242,-3.278 22.784,-5.409 34.454,-6.355 6.192,-0.674 12.417,-1.014 18.647,-1.025 3.086,-0.021 6.172,0.032 9.255,0.16 l 4.556,8.027 c -6.007,0.319 -11.998,0.926 -17.953,1.818 -4.707,0.771 -9.397,1.645 -14.065,2.624 m 14.875,50.449 c -3.693,-4.451 -7.115,-9.12 -10.25,-13.983 -1.442,-2.558 -2.931,-5.095 -4.467,-7.598 2.936,0.121 5.874,0.186 8.813,0.2 5.773,0.37 11.518,1.085 17.203,2.143 8.306,1.034 16.407,3.313 24.029,6.763 2.639,1.026 5.239,2.15 7.794,3.365 0.264,-2.816 0.634,-5.623 1.106,-8.416 0.948,-8.312 3.145,-16.435 6.519,-24.094 2.006,-5.425 4.339,-10.724 6.982,-15.87 1.496,-2.528 2.947,-5.086 4.348,-7.669 1.364,2.604 2.775,5.182 4.233,7.735 2.566,5.183 4.819,10.515 6.745,15.97 3.26,7.709 5.334,15.863 6.159,24.19 0.429,2.799 0.757,5.611 0.982,8.433 2.571,-1.179 5.188,-2.263 7.843,-3.25 7.672,-3.336 15.804,-5.495 24.125,-6.404 5.702,-0.972 11.456,-1.601 17.233,-1.885 2.937,0.031 5.879,0.007 8.816,-0.07 -1.572,2.484 -3.101,4.994 -4.58,7.533 -3.209,4.814 -6.697,9.432 -10.46,13.826 -5.046,6.677 -11.069,12.552 -17.87,17.428 -2.208,1.772 -4.48,3.462 -6.81,5.067 2.306,1.638 4.551,3.361 6.735,5.166 6.725,4.978 12.661,10.942 17.605,17.694 3.697,4.448 7.118,9.12 10.252,13.98 1.444,2.561 2.933,5.096 4.468,7.601 -2.937,-0.121 -5.876,-0.188 -8.814,-0.201 -5.773,-0.37 -11.517,-1.085 -17.202,-2.144 -8.307,-1.033 -16.407,-3.312 -24.03,-6.762 -2.638,-1.027 -5.238,-2.15 -7.793,-3.366 -0.265,2.817 -0.634,5.624 -1.106,8.416 -0.949,8.314 -3.145,16.436 -6.52,24.096 -2.006,5.423 -4.339,10.723 -6.981,15.867 -1.497,2.53 -2.947,5.087 -4.349,7.67 -1.362,-2.604 -2.774,-5.182 -4.233,-7.734 -2.566,-5.183 -4.819,-10.516 -6.745,-15.97 -3.258,-7.71 -5.333,-15.864 -6.159,-24.19 -0.428,-2.799 -0.756,-5.611 -0.98,-8.433 -2.573,1.178 -5.188,2.263 -7.843,3.25 -7.673,3.336 -15.805,5.494 -24.126,6.402 -5.701,0.974 -11.457,1.604 -17.233,1.887 -2.939,-0.031 -5.878,-0.009 -8.816,0.07 1.574,-2.483 3.1,-4.995 4.581,-7.533 3.206,-4.814 6.698,-9.432 10.459,-13.827 5.047,-6.677 11.07,-12.551 17.869,-17.428 2.209,-1.771 4.481,-3.461 6.812,-5.066 -2.307,-1.638 -4.553,-3.361 -6.735,-5.167 -6.725,-4.978 -12.662,-10.941 -17.609,-17.692 M 93.398,203.884 c -0.17,0.195 -0.384,0.347 -0.622,0.45 -0.094,0.036 -0.202,0.02 -0.279,-0.046 -0.108,-0.11 -0.192,-0.239 -0.246,-0.386 -0.64,-2.229 -1.055,-4.522 -1.23,-6.839 -0.492,-2.716 -0.756,-5.462 -0.79,-8.214 2.419,-1.313 4.948,-2.417 7.558,-3.31 2.11,-0.977 4.314,-1.73 6.575,-2.258 0.154,-0.024 0.308,-0.013 0.453,0.028 0.097,0.034 0.165,0.122 0.177,0.221 0.027,0.258 -0.002,0.52 -0.088,0.763 -0.823,3.42 -1.666,6.832 -2.533,10.24 -0.147,0.4 -0.28,0.805 -0.398,1.212 -0.3,0.304 -0.588,0.616 -0.866,0.941 -2.554,2.416 -5.125,4.815 -7.711,7.198 m 70.727,-2.6 c -2.53,0.275 -5.04,0.714 -7.513,1.313 -2.267,0.87 -4.514,1.783 -6.744,2.735 -4.148,2.265 -8.052,4.952 -11.645,8.02 -0.703,0.806 -1.354,1.654 -1.95,2.54 -0.483,0.95 -0.906,1.931 -1.268,2.939 -0.93,4.634 -1.377,9.351 -1.334,14.077 0.254,2.412 0.55,4.821 0.894,7.223 0.682,2.453 1.52,4.857 2.514,7.2 0.146,0.259 0.258,0.534 0.335,0.82 0.032,0.115 0.005,0.236 -0.066,0.327 -0.073,0.068 -0.183,0.075 -0.262,0.012 l -0.299,-0.332 c -1.821,-2.152 -3.387,-4.508 -4.669,-7.021 -1.189,-1.956 -2.266,-3.982 -3.222,-6.068 -4.068,-7.706 -7.284,-15.838 -9.589,-24.242 -0.555,-1.943 -1.093,-3.895 -1.615,-5.848 1.962,-0.497 3.926,-0.977 5.895,-1.44 8.464,-2.079 17.131,-3.231 25.843,-3.432 2.287,-0.177 4.58,-0.224 6.869,-0.139 2.819,-0.102 5.639,0.116 8.405,0.657 l 0.436,0.103 c 0.092,0.037 0.142,0.135 0.116,0.232 -0.044,0.108 -0.136,0.188 -0.254,0.217 -0.286,0.074 -0.581,0.108 -0.877,0.107 m -97.287,-20.89 c -0.103,-0.059 -0.171,-0.166 -0.18,-0.285 0.011,-0.153 0.072,-0.301 0.171,-0.42 0.824,-1.045 1.65,-2.088 2.48,-3.129 0.504,-1.233 1.013,-2.46 1.526,-3.69 0.055,-0.144 0.154,-0.27 0.282,-0.353 0.109,-0.051 0.236,-0.043 0.339,0.017 0.244,0.151 0.463,0.337 0.647,0.558 1.828,2.607 3.521,5.308 5.072,8.087 -3.184,0.001 -6.366,-0.16 -9.535,-0.491 -0.281,-0.052 -0.552,-0.151 -0.802,-0.294 m 204.058,49.721 c 2.305,-3.315 4.968,-6.371 7.945,-9.103 3.99,-4.265 8.285,-8.233 12.851,-11.874 3.768,-3.49 7.825,-6.663 12.122,-9.478 0.35,-0.317 0.722,-0.606 1.115,-0.868 0.388,0.266 0.756,0.561 1.1,0.885 4.257,2.883 8.264,6.111 11.98,9.66 4.512,3.707 8.747,7.736 12.673,12.061 2.935,2.776 5.552,5.873 7.806,9.222 2.202,2.817 4.248,5.75 6.133,8.786 0.382,1.395 0.732,2.799 1.045,4.209 l -14.845,25.275 c -1.892,-12.171 -5.21,-24.084 -9.884,-35.492 -2.339,-5.607 -4.851,-11.136 -7.53,-16.584 -1.46,-2.973 -3.061,-5.87 -4.794,-8.692 -1.182,-2.144 -2.418,-4.261 -3.707,-6.344 -1.319,2.063 -2.588,4.16 -3.8,6.286 -1.775,2.795 -3.419,5.672 -4.923,8.621 -2.76,5.407 -5.356,10.899 -7.778,16.469 -4.843,11.338 -8.338,23.2 -10.413,35.343 -11.487,-4.446 -23.463,-7.531 -35.679,-9.188 -6.024,-0.776 -12.07,-1.367 -18.127,-1.772 -3.305,-0.219 -6.615,-0.282 -9.924,-0.192 -2.449,-0.05 -4.9,-0.038 -7.349,0.037 1.128,2.176 2.31,4.321 3.546,6.436 1.533,2.935 3.2,5.794 5.001,8.573 3.304,5.094 6.763,10.088 10.376,14.97 7.396,9.863 15.923,18.82 25.399,26.689 l -29.311,-0.22 c -1.049,-0.993 -2.074,-2.013 -3.076,-3.056 -1.641,-3.174 -3.109,-6.436 -4.398,-9.771 -1.721,-3.651 -3.034,-7.486 -3.913,-11.431 -1.698,-5.589 -2.985,-11.291 -3.856,-17.065 -1.139,-5.01 -1.857,-10.109 -2.147,-15.237 -0.099,-0.462 -0.166,-0.93 -0.195,-1.401 0.426,-0.202 0.865,-0.372 1.316,-0.51 4.623,-2.245 9.425,-4.1 14.355,-5.546 5.468,-2.051 11.074,-3.706 16.783,-4.943 3.873,-1.152 7.862,-1.873 11.889,-2.149 3.542,-0.499 7.104,-0.806 10.676,-0.917 1.399,0.366 2.789,0.765 4.168,1.198 0.336,-1.406 0.706,-2.804 1.109,-4.193 1.928,-3.009 4.019,-5.91 6.261,-8.694 M 301.689,42.816 c -0.094,-0.27 -0.143,-0.554 -0.148,-0.84 10e-4,-0.12 0.06,-0.233 0.159,-0.301 0.138,-0.066 0.297,-0.087 0.447,-0.059 1.319,0.19 2.635,0.382 3.952,0.582 1.317,-0.179 2.637,-0.355 3.958,-0.524 0.153,-0.026 0.31,0 0.448,0.067 0.099,0.071 0.154,0.184 0.153,0.302 -0.008,0.287 -0.06,0.571 -0.159,0.837 -1.344,2.89 -2.836,5.707 -4.469,8.437 -1.591,-2.754 -3.043,-5.591 -4.341,-8.501 m 30.936,94.564 c -0.205,-0.211 -0.382,-0.45 -0.53,-0.708 -1.502,-2.054 -3.138,-4.007 -4.893,-5.85 -1.887,-1.527 -3.802,-3.018 -5.742,-4.474 -4.034,-2.461 -8.313,-4.497 -12.767,-6.073 -1.05,-0.206 -2.111,-0.345 -3.174,-0.419 -1.066,0.057 -2.128,0.181 -3.181,0.373 -4.478,1.509 -8.785,3.482 -12.858,5.881 -1.961,1.425 -3.898,2.889 -5.808,4.385 -1.782,1.818 -3.444,3.747 -4.979,5.778 -0.15,0.256 -0.332,0.492 -0.541,0.7 -0.084,0.086 -0.202,0.125 -0.317,0.108 -0.096,-0.03 -0.155,-0.123 -0.141,-0.221 l 0.138,-0.426 c 0.954,-2.654 2.21,-5.187 3.746,-7.553 1.1,-2.01 2.316,-3.954 3.643,-5.824 4.64,-7.376 10.074,-14.229 16.199,-20.428 1.408,-1.451 2.828,-2.894 4.259,-4.321 1.411,1.452 2.808,2.912 4.194,4.385 6.032,6.289 11.363,13.22 15.893,20.667 1.299,1.889 2.484,3.851 3.556,5.877 1.5,2.388 2.718,4.942 3.633,7.609 l 0.13,0.425 c 0.014,0.102 -0.047,0.193 -0.145,0.22 -0.115,0.016 -0.233,-0.024 -0.315,-0.111 M 317.198,76.893 c -3.372,0.996 -6.75,1.974 -10.133,2.927 -0.419,0.074 -0.837,0.159 -1.25,0.262 -0.412,-0.109 -0.827,-0.202 -1.247,-0.281 -3.368,-1.004 -6.731,-2.031 -10.089,-3.078 -0.252,-0.051 -0.492,-0.16 -0.7,-0.317 -0.079,-0.062 -0.118,-0.166 -0.099,-0.265 0.039,-0.146 0.11,-0.285 0.21,-0.404 1.611,-1.669 3.389,-3.174 5.309,-4.486 2.105,-1.781 4.353,-3.387 6.719,-4.792 2.343,1.44 4.567,3.077 6.645,4.893 1.901,1.338 3.655,2.868 5.242,4.565 0.096,0.118 0.166,0.261 0.204,0.405 0.016,0.102 -0.024,0.205 -0.105,0.265 -0.209,0.154 -0.451,0.259 -0.706,0.306 m 225.261,107.343 c -3.171,0.28 -6.355,0.395 -9.538,0.346 1.591,-2.754 3.323,-5.431 5.193,-8.01 0.185,-0.217 0.408,-0.401 0.654,-0.547 0.103,-0.059 0.23,-0.064 0.339,-0.012 0.126,0.085 0.225,0.21 0.277,0.357 0.495,1.235 0.986,2.472 1.47,3.714 0.816,1.051 1.626,2.106 2.432,3.166 0.098,0.119 0.157,0.266 0.167,0.418 -0.015,0.12 -0.081,0.228 -0.186,0.285 -0.25,0.139 -0.525,0.234 -0.808,0.283 m -25.483,23.265 c -0.239,-0.105 -0.449,-0.26 -0.619,-0.457 -2.547,-2.422 -5.084,-4.861 -7.601,-7.314 -0.272,-0.328 -0.556,-0.644 -0.852,-0.953 -0.112,-0.409 -0.237,-0.816 -0.378,-1.22 -0.817,-3.418 -1.607,-6.843 -2.38,-10.273 -0.083,-0.245 -0.107,-0.51 -0.079,-0.766 0.014,-0.101 0.085,-0.185 0.181,-0.217 0.148,-0.039 0.303,-0.048 0.453,-0.021 2.254,0.56 4.448,1.346 6.541,2.354 2.599,0.931 5.11,2.076 7.507,3.423 -0.073,2.75 -0.377,5.493 -0.91,8.2 -0.211,2.314 -0.659,4.603 -1.333,6.823 -0.056,0.146 -0.143,0.273 -0.249,0.38 -0.079,0.063 -0.189,0.08 -0.281,0.041 m -39.889,36.213 c -1.32,2.492 -2.919,4.825 -4.772,6.95 l -0.304,0.328 c -0.079,0.059 -0.191,0.054 -0.263,-0.017 -0.069,-0.092 -0.095,-0.213 -0.06,-0.329 0.08,-0.283 0.201,-0.557 0.348,-0.813 1.026,-2.329 1.901,-4.722 2.62,-7.163 0.379,-2.398 0.711,-4.799 1.001,-7.209 0.114,-4.722 -0.261,-9.447 -1.124,-14.094 -0.345,-1.013 -0.754,-2.001 -1.224,-2.957 -0.58,-0.894 -1.219,-1.752 -1.911,-2.57 -3.546,-3.123 -7.409,-5.866 -11.524,-8.194 -2.216,-0.983 -4.45,-1.93 -6.701,-2.835 -2.465,-0.636 -4.967,-1.112 -7.493,-1.423 -0.298,-0.003 -0.59,-0.045 -0.877,-0.12 -0.115,-0.031 -0.207,-0.115 -0.251,-0.222 -0.023,-0.098 0.025,-0.195 0.119,-0.233 l 0.439,-0.095 c 2.774,-0.498 5.597,-0.677 8.414,-0.53 2.291,-0.05 4.583,0.028 6.865,0.242 8.709,0.331 17.361,1.612 25.79,3.817 1.963,0.492 3.92,1.002 5.873,1.528 -0.551,1.946 -1.118,3.887 -1.701,5.825 -2.431,8.369 -5.767,16.45 -9.952,24.093 -0.985,2.073 -2.094,4.081 -3.312,6.021 m -94.396,44.819 c 3.683,-4.829 7.216,-9.77 10.596,-14.813 1.843,-2.752 3.553,-5.586 5.131,-8.498 1.265,-2.095 2.479,-4.225 3.639,-6.382 -2.446,-0.112 -4.895,-0.161 -7.344,-0.149 -3.31,-0.138 -6.619,-0.125 -9.928,0.047 -6.061,0.313 -12.116,0.813 -18.152,1.499 -12.237,1.474 -24.26,4.381 -35.812,8.654 l 14.845,-25.276 c 1.387,-0.412 2.78,-0.79 4.187,-1.136 3.568,0.166 7.127,0.527 10.66,1.078 4.024,0.337 8.001,1.116 11.855,2.326 5.69,1.323 11.272,3.058 16.707,5.193 4.909,1.519 9.683,3.445 14.272,5.76 0.449,0.143 0.886,0.321 1.308,0.531 -0.037,0.468 -0.107,0.935 -0.217,1.395 -0.365,5.126 -1.159,10.213 -2.373,15.205 -0.957,5.761 -2.331,11.442 -4.112,17.006 -0.936,3.929 -2.308,7.745 -4.084,11.371 -1.339,3.314 -2.853,6.554 -4.541,9.704 -1.017,1.028 -2.058,2.032 -3.122,3.01 l -29.313,-0.22 c 9.594,-7.725 18.254,-16.555 25.798,-26.305 m 38.83,21.16 c 1.697,-3.227 3.365,-6.469 4.998,-9.731 2.095,-4.906 4.11,-9.85 6.039,-14.825 2.175,-5.218 4.017,-10.57 5.509,-16.019 2.743,-10.273 5.013,-20.665 6.812,-31.142 0.104,-1.206 0.212,-2.413 0.327,-3.621 -1.096,-0.518 -2.186,-1.044 -3.274,-1.576 -9.916,-3.83 -20.004,-7.208 -30.227,-10.124 -5.447,-1.514 -10.985,-2.676 -16.577,-3.484 -5.264,-0.896 -10.539,-1.703 -15.828,-2.419 -3.637,-0.272 -7.275,-0.504 -10.917,-0.702 -2.146,-0.149 -4.297,-0.195 -6.445,-0.135 -0.997,-1.905 -2.084,-3.762 -3.258,-5.565 -1.947,-3.086 -3.923,-6.148 -5.93,-9.196 -3.2,-4.268 -6.477,-8.482 -9.821,-12.641 -3.429,-4.493 -7.144,-8.764 -11.117,-12.781 -7.527,-7.512 -15.388,-14.675 -23.564,-21.47 -0.992,-0.694 -1.983,-1.389 -2.971,-2.09 -0.997,0.685 -1.999,1.367 -3.003,2.044 -8.274,6.672 -16.243,13.719 -23.881,21.118 -4.034,3.956 -7.81,8.172 -11.307,12.612 -3.406,4.108 -6.743,8.275 -10.009,12.494 -2.052,3.018 -4.073,6.051 -6.064,9.106 -1.203,1.784 -2.318,3.625 -3.342,5.514 -2.146,-0.088 -4.299,-0.077 -6.448,0.04 -3.644,0.143 -7.286,0.324 -10.927,0.537 -5.297,0.639 -10.585,1.368 -15.86,2.184 -5.605,0.726 -11.16,1.805 -16.627,3.238 -10.268,2.762 -20.403,5.989 -30.375,9.67 -1.096,0.516 -2.195,1.025 -3.297,1.529 0.096,1.208 0.188,2.416 0.271,3.625 1.641,10.501 3.759,20.925 6.345,31.236 1.412,5.475 3.175,10.853 5.271,16.101 1.856,5.005 3.795,9.976 5.816,14.915 1.587,3.285 3.204,6.552 4.854,9.804 0.945,1.935 1.98,3.821 3.105,5.653 l -0.986,-0.009 c -0.966,-1.232 -1.908,-2.483 -2.82,-3.756 -1.6,-2.197 -3.118,-4.452 -4.555,-6.761 -2.39,-3.671 -4.548,-7.484 -6.471,-11.419 -1.401,-2.306 -2.618,-4.716 -3.645,-7.211 -5.895,-12.076 -10.936,-24.549 -15.077,-37.332 -1.148,-4.404 -2.228,-8.82 -3.245,-13.256 -0.979,-3.081 -1.711,-6.231 -2.191,-9.419 3.017,-1.132 6.125,-2.028 9.293,-2.674 4.37,-1.273 8.754,-2.48 13.158,-3.622 13.181,-2.606 26.531,-4.279 39.948,-5.011 2.681,-0.318 5.377,-0.428 8.075,-0.327 4.372,-0.24 8.753,-0.21 13.125,0.09 2.715,0.128 5.425,0.356 8.121,0.681 1.557,0.18 3.109,0.392 4.655,0.635 0.585,-1.451 1.197,-2.893 1.843,-4.32 1.103,-2.483 2.296,-4.925 3.578,-7.321 1.985,-3.908 4.208,-7.683 6.655,-11.315 1.296,-2.367 2.774,-4.626 4.423,-6.765 7.508,-11.142 15.792,-21.745 24.79,-31.721 3.239,-3.196 6.525,-6.34 9.859,-9.438 2.179,-2.389 4.54,-4.598 7.06,-6.607 2.491,2.046 4.818,4.289 6.962,6.711 3.287,3.149 6.525,6.339 9.715,9.584 8.849,10.11 16.974,20.836 24.314,32.089 1.616,2.164 3.061,4.442 4.322,6.83 2.393,3.668 4.559,7.473 6.484,11.411 1.247,2.418 2.402,4.876 3.467,7.376 0.626,1.438 1.217,2.888 1.781,4.348 1.549,-0.219 3.106,-0.41 4.662,-0.564 2.703,-0.286 5.414,-0.474 8.133,-0.564 4.373,-0.234 8.755,-0.196 13.126,0.108 2.696,-0.062 5.39,0.09 8.066,0.446 13.405,0.931 26.729,2.805 39.869,5.611 4.387,1.205 8.751,2.479 13.103,3.815 3.158,0.694 6.251,1.635 9.254,2.814 -0.53,3.178 -1.308,6.317 -2.334,9.384 -1.085,4.42 -2.228,8.823 -3.442,13.206 -4.332,12.719 -9.558,25.117 -15.633,37.102 -1.063,2.48 -2.316,4.872 -3.753,7.157 -1.98,3.904 -4.194,7.686 -6.638,11.323 -1.473,2.286 -3.026,4.517 -4.657,6.69 -0.932,1.258 -1.89,2.496 -2.878,3.715 l -0.986,-0.009 c 1.152,-1.814 2.217,-3.684 3.192,-5.604"
           style="fill:#231f20;fill-opacity:1;fill-rule:evenodd;stroke:none"
           id="path121107"
           inkscape:connector-curvature="0" /></g></g></g></svg>