<?xml version="1.0" encoding="UTF-8" standalone="no"?> <!-- Created with Vectornator Pro for iOS (http://vectornator.io/) --><!DOCTYPE svg PUBLIC "-//W3C//DTD SVG 1.1//EN" "http://www.w3.org/Graphics/SVG/1.1/DTD/svg11.dtd">
<svg style="fill-rule:evenodd;clip-rule:evenodd;stroke-linecap:round;stroke-linejoin:round;" xmlns:vectornator="http://vectornator.io" xmlns:xlink="http://www.w3.org/1999/xlink" xmlns="http://www.w3.org/2000/svg" xml:space="preserve" version="1.1" viewBox="0 0 2048 1152">
<metadata>
<vectornator:setting key="Units" value="Points"/>
<vectornator:setting key="GridSpacing" value="50"/>
<vectornator:setting key="RulersVisible" value="1"/>
<vectornator:setting key="DynamicGuides" value="1"/>
</metadata>
<defs/>
<g id="document" vectornator:layerName="document">
<path d="M227.041+337.963L228.175+330.949C222.871+323.976+224.517+314.453+231.696+309.182C226.528+302.02+228.337+290.832+235.5+285.664C230.332+278.502+226.005+269.779+233.15+264.714C230.798+261.51+229.864+257.462+230.197+253.493C228.063+253.493+221.245+253.493+221.245+253.493C197.288+253.493+213.184+256.726+213.184+247.793C213.59+238.859+205.629+235.366+230.804+235.366L237.452+232.537L237.61+221.465C237.61+216.187+232.738+206.055+237.61+204.431C250.908+200.066+268.25+198.872+280.041+198.872C291.832+198.872+307.112+194.507+320.41+198.872C325.485+200.497+328.219+210.776+328.219+216.055L328.219+235.366L336.137+235.366C360.093+235.366+364.843+233.293+364.843+242.226C364.843+251.159+366.205+248.196+340.827+248.196C340.827+248.196+329.031+248.196+328.219+248.196C326.587+246.448+324.619+245.563+322.35+245.274C323.693+249.367+324.42+253.747+324.42+258.309L324.42+267.381C325.495+265.747+326.778+264.042+328.091+262.253L325.753+247.793C333.034+253.047+334.882+264.47+329.611+271.649C336.757+276.714+332.43+285.437+327.262+292.599C334.424+297.767+336.233+308.955+331.066+316.117C338.244+321.388+339.89+330.911+334.586+337.884L336.058+346.985C341.828+347.588+352.608+353.49+358.814+354.588C369.924+356.553+376.448+358.722+384.946+362.492C404.735+371.273+396.161+385.243+396.161+399.583C396.161+421.571+397.432+425.897+384.946+466.668C380.643+480.716+369.21+503.906+384.946+520.663C389.095+525.081+393.917+540.294+396.161+546.285C398.405+552.275+405.867+565.972+408.97+569.856C414.533+576.818+412.459+564.666+413.392+569.856C414.697+577.113+425.579+584.434+413.392+586.744C407.727+587.818+414.83+575.395+408.97+579.344C402.225+583.89+454.528+621.258+454.528+623.177L462.126+636.898L464.411+663.985L459.576+671.872L448.466+676.67L437.287+671.872L433.96+652.926L432.793+640.364L425.217+632.718L422.775+650.041L418.083+650.041L418.083+640.364L413.392+632.718C376.407+610.979+384.473+562.391+396.161+676.67C407.849+790.948+435.691+907.99+432.793+909.985C426.258+914.486+411.554+909.61+396.161+919.397C369.489+936.355+375.527+922.04+375.527+962.549C375.527+1003.06+369.274+1076.12+359.131+1077.07C359.025+1077.08+358.915+1077.12+358.814+1077.09C352.695+1075.16+356.43+1081.15+347.864+1077.09C345.722+1076.07+340.859+1081.12+347.864+1092.59C354.868+1104.06+387.828+1122.86+384.946+1120.93C383.933+1120.26+405.886+1132.2+396.161+1137.82C386.437+1143.44+345.035+1142.74+340.827+1137.82C337.274+1133.66+303.043+1142.24+299.163+1137.82C295.897+1134.09+282.297+1137.23+278.007+1129.16C275.863+1125.12+278.893+1115.87+278.007+1108.89C277.122+1101.9+272.321+1097.2+271.955+1092.59C271.488+1086.72+277.862+1082.05+278.007+1077.07C278.153+1072.08+272.069+1066.79+271.955+1062.99C271.824+1058.66+286.472+1054.41+286.302+1053.14C284.353+1038.59+278.149+1010.37+278.007+979.795C277.866+949.223+283.651+919.397+278.007+919.397C257.776+919.397+271.692+922.82+260.203+919.397C253.359+917.358+269.546+1035+248.546+1029.66C247.141+1029.3+253.203+1040.96+248.546+1042.46C241.401+1044.76+247.441+1044.26+236.702+1048.1C235.85+1048.41+243.662+1051.82+248.546+1062.99C251.309+1069.31+240.451+1081.57+243.696+1088.81C246.69+1095.48+255.952+1102.95+258.557+1108.89C261.161+1114.82+257.109+1117.18+258.557+1120.93C260.004+1124.69+260.681+1129.04+260.203+1129.16C253.54+1130.78+207.455+1128.7+200.925+1129.16C196.256+1129.48+195.891+1121.46+195.891+1115.61C195.891+1096.08+204.527+1113.46+200.925+1100.38C199.332+1094.6+181.253+1094.55+179.602+1088.81C174.22+1070.07+191.644+1048.33+190.425+1048.1C180.673+1046.3+170.336+1000.85+167.853+962.549C167.024+949.756+176.645+930.769+175.94+919.397C174.534+896.719+154.774+897.796+151.814+897.141C144.944+895.619+158.56+690.637+160.612+684.187C160.612+634.519+172.369+591.934+175.94+546.285L175.94+488.28C175.94+479.026+151.814+492.959+151.814+466.668C151.814+411.962+150.233+399.583+160.612+399.583C161.684+399.583+160.612+400.848+160.612+354.588C160.612+350.344+152.646+346.229+151.814+339.637C151.268+335.305+149.231+325.502+149.231+319.17C149.231+312.81+149.356+296.67+151.814+290.715C152.717+288.529+171.627+306.225+171.627+299.095C171.627+291.964+171.627+277.559+171.627+273.59C171.627+267.342+163.242+271.649+151.814+271.649C146.115+271.649+150.081+255.869+151.814+250.385C153.616+244.682+189.02+251.172+190.425+245.274C191.067+242.577+194.14+235.79+195.891+227.977C196.642+224.624+186.958+224.736+187.671+221.465C188.546+217.45+189.644+211.173+190.425+207.302C191.557+201.683+191.593+197.692+190.425+193.829C189.256+189.967+186.882+186.565+183.903+189.909C181.995+192.052+182.148+191.031+179.602+193.829C178.174+195.399+177.289+205.927+175.94+207.302C172.187+211.128+170.753+209.684+165.14+207.302C162.594+206.221+163.112+204.802+160.612+198.872C158.112+192.942+154.478+181.151+155.042+176.872C155.151+176.043+162.588+178.613+165.14+176.872C167.692+175.132+168.234+174.118+171.627+172.016C174.119+170.472+174.706+166.814+176.902+165.332C180.687+162.777+183.562+160.475+183.903+158.984C184.977+154.29+197.781+151.415+198.962+145.846C199.204+144.704+198.711+119.856+198.962+118.72C199.213+117.584+198.701+103.168+198.962+102.052C199.223+100.936+195.618+101.425+195.891+100.344C196.402+98.316+195.332+96.124+195.891+94.292C196.683+91.696+198.335+94.715+198.962+92.194C200.413+86.36+200.925+79.814+200.925+74.48C200.925+66.36+204.021+69.876+205.268+69.736C207.664+69.468+208.27+79.406+209.462+94.292C209.606+96.09+213.083+94.382+213.184+96.374C213.27+98.098+213.153+100.189+213.184+102.052C213.215+103.924+209.473+102.163+209.462+104.153C209.436+108.713+211.817+118.607+211.614+123.721C211.322+131.064+212.119+137.589+211.614+145.846C210.45+164.858+209.19+185.546+209.462+205.377C209.777+228.332+216.441+247.115+216.918+267.381C217.077+274.097+226.835+279.635+227.041+285.664C227.277+292.586+226.72+293.354+227.041+299.095C227.285+303.472+220.94+305.643+221.245+309.182C222.235+320.682+219.394+338.247+221.245+337.963C225.082+337.375+224.199+338.482+227.041+337.963ZM324.42+279.83L324.42+281.939C324.688+281.447+324.984+280.975+325.309+280.525C324.99+280.294+324.694+280.063+324.42+279.83Z" opacity="1" fill="#0f1eb6"/>
<path d="M1709.06+238.113L1710.19+238.017C1710.18+238.018+1710.18+238.018+1710.19+238.017C1710.59+237.986+1711.24+237.971+1712.05+238.008C1713.33+238.066+1714.61+238.247+1715.8+238.578C1717.63+239.089+1719.04+239.91+1719.93+241.053C1721.01+242.435+1720.94+242.824+1719.57+244.674C1719.53+244.73+1719.53+244.73+1719.48+244.786C1718.09+246.678+1717.54+247.785+1717.66+249.522C1717.8+251.568+1718.65+252.802+1721.07+255.427C1721.09+255.452+1721.09+255.452+1721.12+255.476C1722.86+257.364+1723.41+258.202+1723.39+258.875C1723.36+259.62+1722.75+260.642+1720.96+262.959C1720.93+262.986+1720.93+262.986+1720.91+263.014C1718.36+266.313+1717.51+267.789+1717.66+269.976C1717.82+272.366+1719.42+273.706+1722.02+274.723C1722.28+274.828+1722.55+274.927+1722.88+275.041C1723.01+275.086+1723.5+275.256+1723.62+275.295C1724.03+275.439+1724.25+275.532+1724.29+275.559C1724.22+275.516+1724.14+275.45+1724.04+275.338C1723.85+275.113+1723.69+274.814+1723.64+274.447C1723.58+274.041+1723.66+273.654+1723.83+273.339C1723.92+273.163+1724.02+273.048+1724.11+272.971C1724.01+273.059+1723.42+273.361+1722.42+273.801C1722.63+273.71+1719.72+274.966+1718.83+275.373C1716.93+276.246+1715.48+277.031+1714.35+277.875C1712.63+279.154+1711.64+280.569+1711.76+282.32C1711.86+283.936+1712.82+285.255+1714.38+286.462C1715.42+287.267+1716.66+287.985+1718.47+288.896C1723.04+291.196+1722.66+290.993+1723.01+291.382C1722.96+291.324+1722.89+291.166+1722.87+290.956C1722.86+290.778+1722.89+290.666+1722.91+290.633C1722.85+290.731+1722.73+290.896+1722.52+291.135C1722.38+291.304+1721.76+291.982+1721.68+292.062C1720.13+293.794+1719.36+295.22+1719.5+297.177C1719.63+299.181+1720.56+301.079+1721.98+302.87C1722.45+303.464+1722.95+304.006+1723.44+304.489C1723.74+304.785+1723.99+305.002+1724.14+305.131L1725.75+306.469L1728.43+303.25L1726.82+301.912C1726.74+301.851+1726.58+301.708+1726.37+301.495C1725.99+301.13+1725.61+300.716+1725.26+300.268C1724.32+299.081+1723.74+297.901+1723.67+296.895C1723.64+296.376+1723.94+295.819+1724.8+294.858C1724.84+294.815+1725.49+294.1+1725.69+293.879C1726.08+293.426+1726.37+293.037+1726.59+292.611C1727.32+291.259+1727.21+289.779+1726.11+288.57C1725.53+287.93+1724.72+287.389+1723.49+286.731C1722.83+286.378+1720.09+285.026+1720.35+285.157C1717.41+283.674+1715.97+282.561+1715.93+282.038C1715.94+282.091+1715.93+282.137+1715.92+282.162C1715.93+282.143+1715.95+282.1+1715.99+282.035C1716.15+281.817+1716.44+281.54+1716.85+281.231C1717.69+280.603+1718.92+279.938+1720.57+279.178C1721.41+278.795+1724.28+277.558+1724.11+277.632C1725.55+276.998+1726.3+276.612+1726.85+276.135C1728.31+274.869+1728.03+272.965+1726.53+272.02C1726.13+271.767+1725.71+271.595+1725+271.345C1724.88+271.3+1724.38+271.13+1724.26+271.089C1723.98+270.991+1723.76+270.909+1723.54+270.826C1722.32+270.346+1721.85+269.954+1721.83+269.694C1721.79+268.998+1722.4+267.928+1724.22+265.576C1724.24+265.548+1724.24+265.548+1724.27+265.521C1726.7+262.383+1727.5+261.037+1727.57+259.015C1727.65+256.773+1726.74+255.402+1724.2+252.639C1724.17+252.614+1724.17+252.614+1724.15+252.589C1722.44+250.737+1721.88+249.928+1721.83+249.24C1721.81+248.835+1722.03+248.389+1722.85+247.273C1722.89+247.219+1722.89+247.219+1722.93+247.163C1724.04+245.666+1724.5+244.885+1724.74+243.657C1725.09+241.937+1724.59+240.213+1723.23+238.478C1721.72+236.542+1719.55+235.279+1716.92+234.546C1716.76+234.501+1716.6+234.459+1716.44+234.419C1730.71+231.977+1759.68+226.042+1748.13+219.723C1733.03+211.461+1709.06+209.215+1709.06+209.215L1706.07+177.885C1706.07+177.885+1681.18+169.075+1659.01+170.46C1636.84+171.845+1617.39+183.425+1617.39+183.425L1617.39+209.215C1617.39+209.215+1572.51+217.705+1574.84+227.207C1576.56+234.226+1598.96+235.45+1610.54+235.61C1610.09+236.402+1609.57+237.385+1609.06+238.526C1607.62+241.741+1606.75+245.056+1606.75+248.329C1606.75+249.97+1604.93+251.663+1600.95+253.818C1600.54+254.043+1597.63+255.558+1596.87+255.986C1595.27+256.894+1594.27+257.631+1593.62+258.544C1592.89+259.593+1592.73+260.84+1593.33+262.006C1594.02+263.341+1595.28+264.243+1597.44+265.311C1598.14+265.657+1600.71+266.827+1601.02+266.975C1605.04+268.881+1606.75+270.414+1606.75+272.39C1606.75+274.876+1605.62+277.645+1603.7+280.426C1603.01+281.432+1602.26+282.366+1601.52+283.199C1601.26+283.489+1601.02+283.744+1600.81+283.961C1600.69+284.086+1600.61+284.167+1600.53+284.236C1600.28+284.485+1599.88+284.923+1599.36+285.524C1598.51+286.514+1597.66+287.615+1596.86+288.803C1594.61+292.163+1593.21+295.559+1593.1+298.878C1593.1+299.006+1593.09+299.132+1593.09+299.259C1593.09+302.738+1594.52+306.28+1596.86+309.759C1597.66+310.943+1598.51+312.036+1599.37+313.018C1599.89+313.614+1600.29+314.047+1600.53+314.281C1600.57+314.318+1600.65+314.405+1600.78+314.537C1600.99+314.766+1601.23+315.034+1601.49+315.337C1602.24+316.208+1602.99+317.179+1603.69+318.219C1605.54+320.986+1606.67+323.705+1606.74+326.095C1606.74+326.178+1606.75+326.261+1606.75+326.344C1606.75+328.83+1605.62+331.599+1603.7+334.38C1603.01+335.386+1602.26+336.32+1601.52+337.153C1601.26+337.443+1601.02+337.698+1600.81+337.915C1600.69+338.04+1600.61+338.121+1600.57+338.154L1599.05+339.598L1601.94+342.629L1603.46+341.186C1603.71+340.946+1604.12+340.524+1604.64+339.942C1605.5+338.985+1606.35+337.915+1607.15+336.754C1609.5+333.339+1610.93+329.83+1610.93+326.344C1610.93+326.218+1610.93+326.091+1610.93+325.964C1610.82+322.645+1609.42+319.249+1607.17+315.888C1606.37+314.701+1605.52+313.6+1604.67+312.609C1604.15+312.008+1603.74+311.57+1603.48+311.31C1603.45+311.274+1603.36+311.189+1603.24+311.06C1603.03+310.835+1602.79+310.571+1602.53+310.272C1601.78+309.413+1601.03+308.452+1600.34+307.42C1598.42+304.568+1597.28+301.751+1597.28+299.259C1597.28+299.176+1597.28+299.093+1597.28+299.009C1597.36+296.62+1598.48+293.901+1600.34+291.134C1601.04+290.094+1601.79+289.123+1602.53+288.251C1602.8+287.948+1603.04+287.68+1603.25+287.451C1603.37+287.319+1603.46+287.233+1603.46+287.232C1603.71+286.992+1604.12+286.57+1604.64+285.988C1605.5+285.031+1606.35+283.961+1607.15+282.8C1609.5+279.385+1610.93+275.876+1610.93+272.39C1610.93+268.201+1608.21+265.747+1602.81+263.191C1602.44+263.018+1599.93+261.869+1599.29+261.557C1597.91+260.876+1597.19+260.357+1597.05+260.088C1597.21+260.402+1597.16+260.794+1597.05+260.949C1597.22+260.705+1597.85+260.243+1598.94+259.63C1599.62+259.244+1602.47+257.753+1602.95+257.498C1608.25+254.622+1610.93+252.128+1610.93+248.329C1610.93+245.725+1611.66+242.96+1612.88+240.24C1613.31+239.274+1613.78+238.386+1614.24+237.598C1614.51+237.135+1614.72+236.818+1614.82+236.668L1615.55+235.621C1616.72+235.609+1617.39+235.591+1617.39+235.591L1617.39+257.702C1617.39+257.702+1609.93+253.476+1608.85+257.702C1607.77+261.928+1613.06+274.606+1613.06+274.606L1620.45+277.488L1620.45+291.157L1637.47+320.81L1620.45+328.822L1608.85+349.871L1581.79+357.645C1568.9+357.645+1549.11+373.73+1549.11+386.623C1549.11+399.516+1540.4+479.572+1540.4+479.572C1528.32+566.835+1541.12+575.127+1540.4+616.143C1539.93+642.49+1523.58+651.937+1525.52+665.133C1530.48+698.872+1540.4+697.206+1540.4+698.902C1540.4+711.117+1529.86+929.197+1549.11+981.678C1627.03+981.678+1617.39+981.678+1617.39+981.678C1617.39+981.678+1630.76+1007.64+1620.45+1025.38C1626.38+1026.19+1658.27+1037.24+1649.02+1048.62C1641.69+1058.08+1654.28+1060.91+1652.07+1067.06C1650.1+1072.53+1648.11+1080.35+1645.5+1081.32C1644.12+1082.81+1646.66+1091.17+1643.76+1097.58C1642.69+1099.95+1640.87+1102.05+1637.83+1103.44L1637.77+1103.47C1628.75+1107.54+1601.18+1111.56+1593.21+1124.31C1611.59+1124.31+1646.21+1128.12+1664.66+1122.17C1673.7+1119.25+1688.08+1113.83+1688.08+1113.83L1706.44+1113.75L1704.99+1096.45C1704.99+1096.45+1699.29+1082.93+1705.69+1074.91C1687.6+1067.94+1694.43+1025.38+1694.43+1025.38C1694.43+1025.38+1690.57+1013.65+1694.43+1007.28C1698.29+1000.92+1694.43+981.678+1694.43+981.678L1728.62+981.678L1742.99+1042.42L1734.89+1060.7L1734.89+1080.67L1717.59+1097.39L1728.62+1121.49L1785.44+1121.49C1787.37+1120.06+1789.4+1122.2+1791.44+1102.96C1792.04+1097.35+1784.16+1081.64+1785.44+1072.26C1786.72+1062.87+1797.16+1059.81+1791.44+1048.53C1780.02+1025.96+1797.31+1024.06+1805.16+1007.28C1812.75+991.064+1789.46+972.178+1805.27+968.124C1816.07+965.355+1835.34+960.821+1846.77+960.821C1871.78+960.821+1845.74+902.659+1846.77+881.222C1848.22+850.584+1841.3+803.347+1833.36+759.54C1829.43+737.851+1830.5+716.479+1826.97+698.902C1823.38+680.98+1815.21+666.983+1813.91+658.443C1808.76+624.611+1818.43+641.203+1813.91+614.147L1812.1+599.45L1812.1+576.589L1830.97+579.122C1830.97+579.122+1831.79+582.316+1838.94+572.138C1847.19+562.053+1852.67+559.423+1852.67+552.595C1852.55+545.563+1855.8+532.667+1852.67+528.214C1846.55+519.513+1846.77+493.903+1846.77+493.903L1830.97+425.827L1826.97+403.253L1838.94+386.623C1840.35+372.35+1836.18+389.197+1830.97+362.769C1830.21+358.918+1838.84+355.49+1852.67+342.704C1863.67+332.536+1878.05+326.194+1867.11+313.361C1862.42+307.854+1856.94+294.103+1852.67+291.157C1849.23+288.778+1862.37+281.275+1859.19+280.326C1855.5+279.223+1903.11+309.023+1899.5+309.818C1896.05+310.576+1923.13+289.025+1919.81+291.157C1916.46+293.303+1901.53+261.056+1899.5+257.702C1899.21+257.223+1897.04+248.587+1899.5+247.035C1903.42+247.035+1896.02+222.832+1899.5+224.601C1906.72+214.635+1906.55+212.678+1915.69+209.215C1919.76+207.676+1929.18+216.321+1919.81+219.723C1919.81+220.943+1929.4+232.26+1931.5+235.591C1939.42+231.472+1940.7+230.803+1947.61+227.207C1943.59+219.041+1937.45+199.821+1938.04+199.465C1941.11+197.603+1938.17+185.781+1940.97+183.425C1942.48+182.156+1966.64+159.296+1968.04+157.859C1968.47+157.417+1979.55+143.903+1982.66+147.663C1985.14+145.416+1986.48+144.078+1988.94+141.968C1985.31+138.745+2010.24+120.354+2010.75+119.721C2025.36+101.812+2024.05+112.827+2019.76+105.882C2015.26+108.623+2004.74+119.067+2004.2+119.721C2003.71+120.331+2001.61+121.912+1997.56+125.032C1995.54+126.584+1993.05+128.516+1990.03+130.898C1988.22+132.322+1980.67+137.351+1980.67+135.739C1980.6+135.693+1980.52+135.58+1980.47+135.63C1978.78+137.326+1978.2+137.003+1977.28+138.555L1977.85+139.506C1956.74+156.716+1928.56+181.817+1901.27+209.215C1896.7+213.806+1884.47+220.046+1879.94+224.601C1836.13+268.624+1772.18+322.579+1782.41+328.822C1786.37+331.239+1779.65+338.882+1785.44+338.882C1785.44+348.212+1785.44+337.366+1785.44+341.153C1785.31+343.063+1787.21+348.105+1785.44+349.871C1783.67+351.637+1778.23+352.737+1776.31+353.751C1773.46+355.255+1775.29+334.866+1761.03+338.882L1740.68+335.439L1734.89+335.439L1731.43+322.102L1714.34+313.361L1706.07+285.416L1706.07+274.606C1706.07+274.606+1711.13+277.776+1714.34+274.606C1717.56+271.437+1718.92+261.928+1717.59+257.702C1716.27+253.476+1709.06+257.702+1709.06+257.702L1709.06+238.113Z" opacity="1" fill="#0f1eb6"/>
<path d="M1177.19+239.918C1159.47+240.489+1135.61+233.868+1121.71+239.882C1099.57+249.457+1091.17+271.289+1091.02+287.263C1090.79+311.758+1084.12+359.005+1072.17+412.051C1068.57+428.018+1069.65+543.362+1051.95+561.865C1047.28+566.743+1038.54+561.623+1035.98+568.273C1033.42+574.922+1021.35+569.032+1017.85+573.326C1011.58+581.023+999.958+580.06+998.864+585.831C997.335+593.903+1004.18+583.308+1017.73+586.008C1024.03+587.264+1039.69+573.331+1046.17+577.791C1053.64+582.925+1051.43+616.344+1051.41+618.481L1042.81+633.687L1039.98+663.837L1045.28+672.673L1057.61+678.134L1070.11+672.906L1074.02+651.836L1075.45+637.854L1079.68+629.375L1083.97+629.416L1086.51+648.739L1091.73+648.788L1091.83+638.008L1097.14+629.539L1092.05+614.473L1086.91+605.955C1086.92+604.341+1096.73+603.261+1102.33+601.776C1107.93+600.292+1109.27+604.913+1110.78+601.856C1113.17+597.024+1110.41+596.925+1113.6+590.929C1116.51+585.464+1114.48+561.561+1117.3+555.575C1133.05+551.784+1126.01+559.862+1128.25+556.061C1130.49+552.261+1127.94+541.58+1129.22+534.329C1130.05+529.606+1113.54+548.64+1116.14+533.748C1120.56+508.399+1147.18+432.145+1146.07+404.529C1144.62+368.18+1150.51+379.939+1146.53+368.999C1142.55+358.059+1149.31+375.455+1145.93+415.328C1141.36+469.318+1120.62+533.935+1112.45+607.089C1098.23+734.271+1065.99+864.362+1069.2+866.615C1076.43+871.697+1092.86+866.42+1109.91+877.483C1139.44+896.653+1132.87+880.643+1132.44+925.769C1132.02+970.895+1138.22+1052.35+1149.51+1053.51C1149.63+1053.52+1149.75+1053.57+1149.86+1053.54C1156.7+1051.45+1152.48+1058.09+1162.06+1053.65C1164.46+1052.55+1169.82+1058.22+1161.9+1070.92C1153.98+1083.62+1117.06+1104.22+1120.29+1102.11C1121.43+1101.36+1096.85+1114.44+1107.62+1120.8C1118.4+1127.16+1164.53+1126.81+1169.27+1121.38C1173.27+1116.79+1211.31+1126.7+1215.68+1121.81C1219.36+1117.7+1234.47+1121.33+1239.34+1112.39C1241.77+1107.91+1238.49+1097.57+1239.55+1089.8C1240.61+1082.04+1246+1076.85+1246.46+1071.72C1247.04+1065.19+1239.99+1059.91+1239.88+1054.36C1239.77+1048.8+1246.6+1042.97+1246.77+1038.74C1246.96+1033.92+1230.69+1029.03+1230.89+1027.62C1233.21+1011.43+1240.42+980.055+1240.9+946.001C1241.37+911.946+1235.24+878.659+1241.53+878.718C1264.07+878.93+1248.53+882.598+1261.36+878.904C1269.01+876.704+1249.75+1007.58+1273.2+1001.86C1274.77+1001.47+1267.89+1014.4+1273.06+1016.12C1281+1018.75+1274.27+1018.13+1286.2+1022.53C1287.14+1022.87+1278.4+1026.6+1272.85+1038.99C1269.7+1045.99+1281.67+1059.77+1277.98+1067.8C1274.57+1075.2+1264.18+1083.42+1261.21+1090.01C1258.25+1096.6+1262.74+1099.26+1261.09+1103.43C1259.44+1107.6+1258.64+1112.44+1259.17+1112.57C1266.57+1114.45+1317.93+1112.62+1325.2+1113.19C1330.4+1113.6+1330.89+1104.68+1330.95+1098.16C1331.16+1076.39+1321.35+1095.67+1325.51+1081.14C1327.34+1074.72+1338.49+1074.46+1340.39+1068.08C1346.59+1047.25+1352.47+1029.01+1353.83+1028.77C1364.71+1026.87+1360.62+970.584+1363.79+927.941C1364.84+913.698+1354.33+892.446+1355.23+879.785C1357.03+854.538+1401.78+870.467+1405.08+869.768C1412.75+868.145+1370.79+586.646+1368.57+579.438C1368.57+579.438+1356.97+545.765+1357.35+503.995C1357.73+462.225+1413.47+490.659+1422.63+474.822C1447.97+430.991+1491.76+454.49+1491.76+454.49L1471.08+357.842L1416.57+372.489C1414.18+356.987+1403.5+344.603+1399.77+335.045C1392.72+316.955+1391.69+308.014+1386.2+300.378C1377.8+288.707+1376.07+280.964+1361.72+266.138C1346.28+250.193+1288.02+248.925+1288.02+248.925C1294+241.212+1307.44+205.381+1299.5+199.435C1305.33+191.51+1303.43+179.028+1295.51+173.196C1301.34+165.272+1306.25+155.6+1298.34+149.883C1301+146.339+1298.42+139.422+1298.42+139.422C1298.42+139.422+1322.87+134.11+1337.9+130.845C1352.93+127.58+1329.28+125.12+1293.6+125.464L1293.83+101.658C1293.88+95.778+1294.01+82.682+1294.01+82.682C1294.01+82.682+1261.71+69.224+1248.33+69.098C1234.95+68.973+1201.83+75.624+1201.83+75.624C1201.83+75.624+1199.54+92.369+1199.28+119.761L1180.77+119.522C1154.08+119.271+1129.9+127.564+1143.25+128.33C1156.59+129.096+1150.3+130.091+1178.57+130.356C1178.57+130.356+1188.8+130.492+1189.71+130.5C1189.92+130.278+1190.15+130.092+1190.4+129.936L1190.44+132.075C1190.44+132.13+1190.44+132.13+1190.45+132.391C1190.45+132.649+1190.45+132.942+1190.46+133.267C1190.47+134.197+1190.49+135.191+1190.5+136.212C1190.51+137.26+1190.52+138.276+1190.53+139.238C1190.54+140.895+1190.54+142.325+1190.52+143.46C1190.5+145.8+1190.99+147.487+1192.59+151.818C1192.84+152.505+1192.99+152.908+1193.14+153.334C1193.84+155.302+1194.19+156.679+1194.28+157.867C1194.37+159.206+1194.18+159.764+1193.26+161.284C1193.25+161.29+1193.25+161.29+1193.25+161.295C1191.94+163.461+1191.41+164.807+1191.39+167.093C1191.37+168.725+1191.97+170.307+1193.07+172.101C1193.77+173.243+1194.29+173.947+1196.05+176.245C1196.49+176.821+1196.78+177.196+1197.06+177.576C1198.82+179.955+1199.57+181.467+1199.52+182.314C1199.45+183.445+1198.81+184.503+1196.94+186.687C1196.96+186.658+1196.6+187.089+1196.49+187.209C1196.32+187.414+1196.18+187.585+1196.04+187.752C1194+190.201+1193.01+192.035+1192.98+194.436C1192.96+196.258+1193.26+197.64+1194.07+200.316C1194.98+203.363+1195.12+204.413+1194.68+205.494C1194.44+206.088+1193.87+206.803+1192.82+207.836C1192.63+208.029+1192.42+208.232+1192.14+208.492C1192.03+208.594+1191.54+209.062+1191.4+209.192C1187.89+212.527+1186.32+214.806+1186.2+218.347C1186.15+219.697+1185.13+222.552+1183.4+226.19C1183.21+226.589+1183.02+226.995+1182.81+227.407C1179.3+220.034+1181.65+211.221+1188.73+206.121C1183.05+198.088+1185.18+185.644+1193.21+179.962C1187.53+171.929+1182.03+161.784+1190.04+156.216C1185.1+144.651+1181.62+129.899+1189.79+124.122C1189.79+124.122+1190.34+126.301+1190.97+129.189L1193.58+129.143C1194.09+129.117+1194.62+129.116+1195.14+129.116L1196.14+129.098L1196.14+129.112C1196.64+129.104+1197.12+129.085+1197.57+129.032C1196.03+133.577+1197.4+140.968+1197.35+146.05L1196.99+147.008C1197.24+147.77+1197.56+148.684+1197.98+149.822C1198.25+150.534+1198.4+150.957+1198.56+151.417C1199.42+153.833+1199.89+155.642+1200.02+157.462C1200.21+160.227+1199.66+161.822+1198.18+164.265C1198.17+164.271+1198.17+164.271+1198.17+164.276C1197.35+165.636+1197.15+166.136+1197.14+167.151C1197.13+167.924+1197.98+169.303+1200.62+172.746C1201.08+173.345+1201.38+173.741+1201.68+174.152C1204.24+177.608+1205.43+179.998+1205.26+182.685C1205.08+185.485+1203.97+187.313+1201.31+190.423C1201.33+190.399+1200.97+190.824+1200.87+190.939C1200.71+191.128+1200.58+191.284+1200.46+191.431C1199.21+192.934+1198.74+193.798+1198.73+194.495C1198.72+195.547+1198.94+196.53+1199.58+198.659C1200.88+202.986+1201.13+204.919+1200+207.678C1199.39+209.167+1198.42+210.4+1196.86+211.936C1196.63+212.157+1196.4+212.383+1196.1+212.665C1195.99+212.772+1195.49+213.239+1195.36+213.363C1192.89+215.715+1192+217.002+1191.95+218.55C1191.86+220.955+1190.67+224.314+1188.6+228.66C1188.14+229.614+1187.65+230.601+1187.13+231.614C1186.14+233.554+1185.07+235.503+1184.01+237.367C1183.63+238.019+1183.29+238.615+1182.98+239.143C1182.87+239.328+1182.77+239.492+1182.68+239.634C1182.63+239.72+1182.6+239.778+1182.58+239.813L1181.09+242.275L1177.19+239.918ZM1344.01+424.129C1328.25+390.825+1345.7+437.421+1334.51+392.816C1332.9+386.387+1341.62+360.169+1338.34+351.944C1338.34+351.944+1329.59+383.595+1335.9+406.982C1342.21+430.369+1343.4+471.841+1344.01+424.129ZM1301.2+210.578C1291.55+228.991+1285.74+227.572+1285.74+227.031C1285.44+214.615+1285.78+222.905+1285.89+212.122C1287.14+210.962+1287.22+212.653+1287.75+212.139C1291.36+208.594+1288.92+203.352+1288.98+196.344L1289.48+142.664C1289.52+139.239+1287.51+142.498+1293.46+159.725C1287.53+167.782+1289.88+182.463+1297.79+188.18C1291.96+196.105+1293.27+204.746+1301.2+210.578Z" opacity="1" fill="#0f1eb6"/>
<path d="M810.629+463.732L796.526+387.691L760.234+342.923L709.758+391.763L688.712+456.388L712.343+499.383L675.341+514.367L658.74+531.449L648.85+567.736L648.141+696.257L680.181+722.459L680.181+736.757L606.121+736.757L554.402+753.299L505.385+983.167L519.297+983.167L505.385+1024.28L505.385+1052.85L554.402+1052.85L576.154+1040.15L576.154+1024.28L566.774+1010.83L566.774+983.167L617.735+816.127L653.105+816.127L632.155+1000.55L653.105+1000.55L671.505+835.516L688.808+835.516L671.505+941.214L688.808+941.214L707.705+835.516L759.361+846.539L809.757+835.516L831.984+941.214L847.102+941.214L831.984+835.516L847.102+835.516L876.604+1000.55L899.942+1000.55L871.162+821.328L917.655+819.746L961.07+985.042L968.922+988.248L967.54+1006.5L954.874+1025.78L955.202+1039.59L973.586+1049.25L1007.36+1046.6L1026.77+1041.9L1022.24+1012.24L1013.27+990.438L1007.03+991.893L1007.06+983.289L1015.61+978.516L980.436+757.485L916.886+737.685L831.134+742.222L829.922+728.4L855.184+692.374L865.074+555.156L841.659+528.524L801.593+502.319L810.629+463.732Z" opacity="1" fill="#000000"/>
</g>
</svg>
